<?xml version="1.0" encoding="utf-8"?>
<!-- Generator: Adobe Illustrator 22.1.0, SVG Export Plug-In . SVG Version: 6.00 Build 0)  -->
<svg version="1.1" id="图层_1" xmlns="http://www.w3.org/2000/svg" xmlns:xlink="http://www.w3.org/1999/xlink" x="0px" y="0px"
	 viewBox="0 0 510.2 510.2" style="enable-background:new 0 0 510.2 510.2;" xml:space="preserve">
<g>
	<path d="M276.3,449c-3,0-5.5,0-7.9,0c-65.3,0-130.7,0-196,0c-15,0-25.4-7.5-31.2-20.8c-5.8-13.2-3.4-25.7,5.9-36.8
		c1-1.1,1.9-2.2,2.3-2.6c-6.8-12-14.5-23.1-19.7-35.2C5.3,296.1,10.6,241.3,46.4,190c16.9-24.2,39.5-41.7,66.4-53.7
		c8.1-3.7,15-1.8,20,5.5c3,4.4,5.7,9,8.7,13.4c0.7,1,2.2,2.3,3.3,2.2c5.4-0.3,10.8-0.9,16.6-1.5c-0.6-1.1-1.2-2.4-2-3.6
		c-7.2-11.2-14.4-22.4-21.5-33.7c-5.6-8.9-4.1-16.6,4.6-22.3c16.3-10.7,32.7-21.2,49.1-31.7c9.2-5.8,16.7-4.2,22.6,5
		c29.5,46,58.9,92,88.3,138.1c6.2,9.7,4.5,16.9-5.2,23.3c-2.4,1.6-4.7,3.1-7.6,5c3.4,5.3,6.7,10.5,10,15.6c6.6,10.4,5,17.8-5.3,24.4
		c-1.5,1-3.1,2-4.6,2.9c-8.6,5.2-16,3.6-21.5-4.7c-3.7-5.7-7.4-11.4-11.2-17.4c-3,1.9-5.6,3.7-8.3,5.3c-9,5.4-16.6,3.7-22.2-5.2
		c-11-17.1-21.9-34.3-32.8-51.4c-0.9-1.4-1.8-2.7-3.2-4.8c-3.7,12.3-10.9,20.8-22.2,25.3c-8.5,3.4-17.2,3.4-25.9,0.3
		c-17.6-6.3-25.7-22.5-22.1-46.8c-7.7,5.7-14.8,10.2-21,15.7c-52.3,46.4-55.3,124.9-6.6,175.2c13.8,14.3,30.4,24.3,49.3,30.4
		c2.6,0.8,5.6,1,8.4,1.1c13,0.1,26,0,39,0c13.8,0,17.8-3.4,19.6-17.3c22.4,0,44.8,0,67.6,0C276.3,406,276.3,427.3,276.3,449z
		 M167.7,192.9c0.1-7.1-5.7-13.3-12.7-13.5c-7-0.2-13.1,5.9-13.1,13c-0.1,7,5.6,13,12.4,13.1C161.5,205.7,167.6,199.9,167.7,192.9z
		 M85.2,414.5c0-6.6-5.4-12.1-12-12.2c-6.6-0.1-12.3,5.3-12.4,11.8c-0.1,6.8,5.5,12.6,12.2,12.5C79.8,426.5,85.1,421.1,85.2,414.5z"
		/>
	<path d="M417.6,169.5c-10.6,19.5-21.2,38.8-31.7,58.1c-0.7,0.1-1.4,0.1-2.1,0.2c-12.4-18.7-24.9-37.5-37.3-56.2
		c-0.6,0.1-1.1,0.2-1.7,0.4c-0.5,1.2-1.3,2.4-1.3,3.7c-0.2,10.3,1.7,20.2,7.3,29.1c3,4.8,7.1,8.3,12.6,10c1.1,0.3,2.6,0.6,3.1,1.4
		c1.1,1.7,2.6,3.9,2.2,5.5c-0.3,1.5-2.8,2.7-4.6,3.4c-1.3,0.5-3,0.2-4.5,0.1c-13.2-1.2-26.3-1.2-39.2,1.9c-1.1,0.3-2.5,0.5-3.4,0.1
		c-1.9-0.9-5-2.1-5.1-3.4c-0.1-2,1.3-4.8,3-6c2.4-1.6,5.5-2.4,8.4-3.1c4.5-1.1,6.8-3.8,7.1-8.3c1.3-18.8,3.1-37.5,3.7-56.3
		c0.4-11.1-1-22.2-1.8-33.3c-0.2-2.4-1.2-4.8-2.2-7.1c-1.6-3.7-4.3-5.8-8.6-5.5c-1.8,0.2-3.7,0.1-5.5,0c-3.8-0.1-6-2.1-6-5.8
		c-0.1-3.8,2.1-6,5.8-6.1c4-0.2,8-0.1,12,0.1c9.1,0.3,18.2,0.9,27.3,0.8c5-0.1,8.9,1.2,11.7,5.1c5,7,10.2,14,14.6,21.4
		c7.1,12,13.5,24.5,20.3,36.7c1.2,2.2,2.4,4.3,4.2,7.6c2.6-4.4,5-8.1,7.1-11.9c8.1-15.1,16.1-30.3,24.2-45.4
		c1.2-2.2,2.5-4.3,3.9-6.4c2.8-4.1,6.4-6.1,11.7-6.1c10.1-0.1,20.3-1,30.4-1.6c1.5-0.1,3-0.2,4.5-0.3c3.5-0.2,6.1,1.1,6.1,4.9
		c0.1,3.4-1.1,6.2-5.4,6.3c-2.8,0.1-5.6,0.5-8.5,0.7c-6.9,0.5-9.1,2.7-8.9,9.8c0.3,10.3,1,20.6,1.1,31c0.2,19,0.1,38,0.1,56.9
		c0,7.9,1.8,10.2,9.6,12.1c3.4,0.8,7,1.1,10.2,2.4c1.6,0.7,3.3,3.2,3.4,4.9c0,1.3-2.4,3-4.1,3.8c-1.4,0.6-3.3,0.2-4.9,0.2
		c-26.1,0.3-52.3,0.6-78.4,0.9c-3.2,0-7.8,1.6-8.4-3.5c-0.6-5.2,3.6-6,7.6-6.5c3.1-0.4,6.3-0.9,9.4-1.6c3.5-0.7,6-3,5.7-6.5
		c-0.9-12.4-2.3-24.8-3.5-37.3C418.8,170.4,418.4,170.2,417.6,169.5z"/>
	<path d="M399.8,438.9c-13.2,0.7-28.3,1.5-43.5,2.2c-3.3,0.2-7.2,0.9-7.6-4.1c-0.4-4.6,2.9-5.8,6.7-6.4c3.6-0.5,7.3-0.9,10.9-1.5
		c6.7-1.2,9.1-4,9.1-10.8c0-33.5-0.1-66.9-0.2-100.4c0-10.7-3-13.7-13.6-13.7c-2.3,0-4.7,0-7-0.1c-4-0.2-5.4-2.5-5.3-6.3
		c0.1-3.9,2.6-4.7,5.7-4.6c7.2,0.2,14.3,0.9,21.5,0.9c19.8-0.1,39.6-0.5,59.4-0.8c3.8-0.1,7.7-0.1,11.5-0.1c3,0,5.8,0.5,6,4.4
		c0.2,3.7-1.9,5.4-5.4,5.8c-3,0.4-5.9,0.8-8.9,1.5c-8,1.7-9.7,4.2-9.4,12.5c0.6,19.3,1.3,38.6,1.4,57.9c0.1,12.3-0.7,24.6-1.1,36.9
		c-0.1,2-0.1,4,0,6c0.5,6.9,1.2,7.6,8,9.1c4.4,1,8.7,2.2,13,3.3c3.1,0.8,5,2.6,4.6,6.1c-0.4,3.6-2.6,4.7-5.9,4.5
		c-10.6-0.5-21.3-0.9-31.9-1.4C412.4,439.6,407.1,439.3,399.8,438.9z"/>
	<path d="M242.5,367.9c-25.7,0-51.3,0-77,0c-8.7,0-12.4-3.8-12.3-12.1c0.1-7.7,3.6-11.5,11.3-11.5c52-0.1,104-0.1,156,0
		c7.8,0,11.4,4.1,11.3,12c-0.1,7.7-3.8,11.5-11.9,11.5C294.2,367.9,268.4,367.9,242.5,367.9z"/>
</g>
</svg>
